<svg xmlns="http://www.w3.org/2000/svg" xmlns:xlink="http://www.w3.org/1999/xlink" width="1920" zoomAndPan="magnify" viewBox="0 0 1440 809.999993" height="1080" preserveAspectRatio="xMidYMid meet" version="1.0"><defs><clipPath id="a9fb10b39f"><path d="M 0 103 L 1440 103 L 1440 810 L 0 810 Z M 0 103 " clip-rule="nonzero"/></clipPath><clipPath id="3fb7327f35"><path d="M 1943.261719 -61.601562 L 669.199219 2144.707031 L -1440.984375 926.152344 L -166.921875 -1280.15625 Z M 1943.261719 -61.601562 " clip-rule="nonzero"/></clipPath><clipPath id="353b308f26"><path d="M 1943.261719 -61.601562 L 669.199219 2144.707031 L -1440.984375 926.152344 L -166.921875 -1280.15625 Z M 1943.261719 -61.601562 " clip-rule="nonzero"/></clipPath><clipPath id="e8ff469430"><path d="M 1943.261719 -61.601562 L 669.199219 2144.707031 L -1440.984375 926.152344 L -166.921875 -1280.15625 Z M 1943.261719 -61.601562 " clip-rule="nonzero"/></clipPath><clipPath id="7a1639aa10"><path d="M 1943.261719 -61.601562 L 669.199219 2144.707031 L -1440.984375 926.152344 L -166.921875 -1280.15625 Z M 1943.261719 -61.601562 " clip-rule="nonzero"/></clipPath><clipPath id="b510539974"><path d="M 0 464 L 1440 464 L 1440 810 L 0 810 Z M 0 464 " clip-rule="nonzero"/></clipPath><clipPath id="d04efba17d"><path d="M 1943.261719 -61.601562 L 669.199219 2144.707031 L -1440.984375 926.152344 L -166.921875 -1280.15625 Z M 1943.261719 -61.601562 " clip-rule="nonzero"/></clipPath><clipPath id="7ff8eb031f"><path d="M 1943.261719 -61.601562 L 669.199219 2144.707031 L -1440.984375 926.152344 L -166.921875 -1280.15625 Z M 1943.261719 -61.601562 " clip-rule="nonzero"/></clipPath></defs><rect x="-144" width="1728" fill="#ffffff" y="-80.999999" height="971.999992" fill-opacity="1"/><rect x="-144" width="1728" fill="#ffffff" y="-80.999999" height="971.999992" fill-opacity="1"/><rect x="-144" width="1728" fill="#d0faff" y="-80.999999" height="971.999992" fill-opacity="1"/><g clip-path="url(#a9fb10b39f)"><g clip-path="url(#3fb7327f35)"><g clip-path="url(#353b308f26)"><path fill="#4ddde0" d="M 1638.53125 465.746094 L 1616.046875 484.511719 C 1577.765625 525.945312 1515.78125 564.511719 1430.097656 600.214844 C 1387.472656 619.789062 1315.878906 639.972656 1215.316406 660.761719 L 1052.738281 677.457031 C 984.066406 675.34375 888.148438 665.722656 764.988281 648.597656 C 683.355469 639.765625 598.597656 614.273438 510.710938 572.125 C 438.59375 539.617188 204.644531 391.113281 -191.136719 126.613281 C -296.671875 87.519531 -390.890625 98.8125 -473.792969 160.5 C -499.730469 184.464844 -523.277344 217.003906 -544.433594 258.117188 C -682.746094 737.257812 -809.882812 1059.070312 -925.847656 1223.546875 L 669.078125 2144.558594 Z M 1638.53125 465.746094 " fill-opacity="0.5255" fill-rule="nonzero"/></g></g></g><g clip-path="url(#e8ff469430)"><g clip-path="url(#7a1639aa10)"><path fill="#4ddde0" d="M 1943.121094 -61.714844 L 1910 -60.929688 C 1763.402344 -46.0625 1660.765625 -16.152344 1602.089844 28.800781 C 1233.019531 368.945312 1039.359375 537.542969 1021.109375 534.59375 C 883.371094 602.789062 764.28125 639.886719 663.839844 645.886719 C 502.398438 663.59375 305.90625 640.453125 74.371094 576.46875 C 35.628906 561.507812 -43.035156 518.070312 -161.628906 446.152344 C -318.25 347.828125 -480.496094 239.914062 -648.367188 122.410156 L -715.839844 92.589844 C -789.535156 77.789062 -831.648438 73.386719 -842.1875 79.375 C -867.636719 82.03125 -891.339844 88.417969 -913.289062 98.535156 C -957.1875 118.765625 -994.085938 153.914062 -1023.984375 203.984375 L -1210 758.273438 C -1238.890625 835.59375 -1272.402344 916.628906 -1310.539062 1001.375 L 669.078125 2144.558594 Z M 1943.121094 -61.714844 " fill-opacity="0.5255" fill-rule="nonzero"/></g></g><g clip-path="url(#b510539974)"><g clip-path="url(#d04efba17d)"><g clip-path="url(#7ff8eb031f)"><path fill="#4ddde0" d="M 1639.480469 464.109375 L 1617.019531 464.398438 C 1532.4375 469.351562 1463.363281 489.015625 1409.800781 523.386719 L 1132.667969 774.046875 C 1086.671875 814.234375 1051.886719 841.425781 1028.316406 855.617188 C 955.320312 895.167969 877.125 919.527344 793.738281 928.691406 C 658.996094 937.234375 529.984375 922.039062 406.699219 883.113281 C 288.660156 824.753906 129.789062 724.859375 -69.917969 583.429688 C -76.605469 579.042969 -92.574219 572.652344 -117.824219 564.261719 C -202.859375 540.199219 -268.40625 564.960938 -314.46875 638.542969 L -436.605469 1002.484375 C -465.640625 1080.445312 -495.027344 1148.742188 -524.769531 1207.375 C -551.234375 1259.746094 -578.757812 1300.984375 -607.335938 1331.09375 C -630.953125 1347.269531 -654.152344 1359.332031 -676.9375 1367.28125 L 669.078125 2144.558594 Z M 1639.480469 464.109375 " fill-opacity="1" fill-rule="nonzero"/></g></g></g></svg>