<svg width="20" height="20" viewBox="0 0 20 20" fill="none" xmlns="http://www.w3.org/2000/svg">
<path fill-rule="evenodd" clip-rule="evenodd" d="M14.4048 2.50369C14.3319 2.50021 14.2413 2.5 14.0074 2.5C13.905 2.5 13.8661 2.50005 13.8294 2.50092C13.0212 2.52018 12.2492 2.83995 11.6641 3.39782C11.6377 3.42308 11.61 3.45067 11.5377 3.52298L9.28033 5.78033C9.11494 5.94572 9.05097 6.00999 9.00192 6.06396C7.87517 7.30353 7.87517 9.19647 9.00192 10.436C9.05096 10.49 9.11496 10.5543 9.28033 10.7197L9.53033 10.9697C9.82323 11.2626 9.82323 11.7374 9.53033 12.0303C9.23744 12.3232 8.76256 12.3232 8.46967 12.0303L8.20342 11.7641C8.0597 11.6204 7.96826 11.5289 7.89195 11.445C6.24516 9.6333 6.24516 6.8667 7.89195 5.05501C7.96826 4.97106 8.05968 4.87965 8.20343 4.73591L10.477 2.46231L10.484 2.45535C10.5472 2.3921 10.5881 2.35124 10.6291 2.31219C11.4842 1.49686 12.6125 1.02949 13.7937 1.00135C13.8504 0.999997 13.9081 0.999998 13.9979 1L14.0305 1C14.2337 0.999992 14.3629 0.999988 14.4762 1.00539C16.9217 1.12199 18.878 3.07827 18.9946 5.52378C19 5.63711 19 5.76634 19 5.96962V6.0021C19 6.09186 19 6.14961 18.9987 6.20629C18.9705 7.38749 18.5031 8.51581 17.6878 9.37095C17.6487 9.41196 17.6079 9.45281 17.5444 9.51621L17.5377 9.52297L16.2803 10.7803C15.9874 11.0732 15.5126 11.0732 15.2197 10.7803C14.9268 10.4874 14.9268 10.0126 15.2197 9.71967L16.477 8.46231C16.5494 8.38998 16.5769 8.36236 16.6022 8.33585C17.16 7.75076 17.4798 6.97875 17.4991 6.17056C17.5 6.13393 17.5 6.09496 17.5 5.99264C17.5 5.75871 17.4998 5.66807 17.4963 5.59522C17.4165 3.92197 16.078 2.58347 14.4048 2.50369ZM10.4697 9.03033C10.1768 8.73744 10.1768 8.26256 10.4697 7.96967C10.7626 7.67678 11.2374 7.67678 11.5303 7.96967L11.7966 8.23596C11.9403 8.37964 12.0318 8.47107 12.1081 8.55501C13.7548 10.3667 13.7548 13.1333 12.1081 14.945C12.0317 15.0289 11.9403 15.1203 11.7966 15.2641L9.52297 17.5377L9.51591 17.5447C9.45272 17.6079 9.41188 17.6488 9.37095 17.6878C8.51581 18.5031 7.38749 18.9705 6.20629 18.9987C6.14961 19 6.09186 19 6.0021 19H5.96963C5.76634 19 5.63711 19 5.52379 18.9946C3.07827 18.878 1.12199 16.9217 1.00539 14.4762C0.999989 14.3629 0.999993 14.2337 1 14.0305L1 13.9979C0.999999 13.9081 0.999998 13.8504 1.00135 13.7937C1.02949 12.6125 1.49686 11.4842 2.31219 10.6291C2.35131 10.588 2.39218 10.5472 2.45563 10.4837L3.71967 9.21967C4.01256 8.92678 4.48744 8.92678 4.78033 9.21967C5.07322 9.51256 5.07322 9.98744 4.78033 10.2803L3.52297 11.5377C3.45064 11.61 3.42309 11.6376 3.39782 11.6641C2.83995 12.2492 2.52018 13.0212 2.50092 13.8294C2.50005 13.8661 2.5 13.905 2.5 14.0074C2.5 14.2413 2.50022 14.3319 2.50369 14.4048C2.58347 16.078 3.92197 17.4165 5.59522 17.4963C5.66807 17.4998 5.75871 17.5 5.99264 17.5C6.09496 17.5 6.13394 17.4999 6.17056 17.4991C6.97875 17.4798 7.75076 17.16 8.33585 16.6022C8.36235 16.5769 8.39001 16.5493 8.46232 16.477L10.7197 14.2197C10.8851 14.0543 10.949 13.99 10.9981 13.936C12.1248 12.6965 12.1248 10.8035 10.9981 9.56396C10.949 9.51 10.885 9.44571 10.7197 9.28033L10.4697 9.03033Z" fill="#06B6D4"/>
</svg>
